<mxfile host="app.diagrams.net" modified="2024-01-16T06:16:51.393Z" agent="Mozilla/5.0 (Windows NT 10.0; Win64; x64) AppleWebKit/537.36 (KHTML, like Gecko) Chrome/120.0.0.0 Safari/537.36" etag="W8a54IRvrUxXHRyt-tQM" version="22.1.18" type="github">
  <diagram name="第 1 页" id="iXltd4RwVlPWmBBr145E">
    <mxGraphModel dx="2059" dy="1096" grid="1" gridSize="10" guides="1" tooltips="1" connect="1" arrows="1" fold="1" page="1" pageScale="1" pageWidth="827" pageHeight="1169" math="0" shadow="0">
      <root>
        <mxCell id="0" />
        <mxCell id="1" parent="0" />
        <mxCell id="r_4EzZ_7RXdE05h-1gBr-1" value="" style="rounded=0;whiteSpace=wrap;html=1;fillColor=#f5f5f5;fontColor=#333333;strokeColor=#666666;" vertex="1" parent="1">
          <mxGeometry x="-300" y="100" width="500" height="300" as="geometry" />
        </mxCell>
        <mxCell id="r_4EzZ_7RXdE05h-1gBr-2" value="" style="rounded=0;whiteSpace=wrap;html=1;fillColor=#f5f5f5;fontColor=#333333;strokeColor=#666666;" vertex="1" parent="1">
          <mxGeometry x="300" y="100" width="500" height="300" as="geometry" />
        </mxCell>
        <mxCell id="r_4EzZ_7RXdE05h-1gBr-3" value="" style="endArrow=none;dashed=1;html=1;dashPattern=1 3;strokeWidth=2;rounded=0;" edge="1" parent="1">
          <mxGeometry width="50" height="50" relative="1" as="geometry">
            <mxPoint x="-300" y="250" as="sourcePoint" />
            <mxPoint x="800" y="250" as="targetPoint" />
          </mxGeometry>
        </mxCell>
        <mxCell id="r_4EzZ_7RXdE05h-1gBr-6" value="数据" style="rounded=0;whiteSpace=wrap;html=1;fillColor=#dae8fc;strokeColor=#6c8ebf;" vertex="1" parent="1">
          <mxGeometry x="-100" y="145" width="100" height="60" as="geometry" />
        </mxCell>
        <mxCell id="r_4EzZ_7RXdE05h-1gBr-8" value="数据" style="rounded=0;whiteSpace=wrap;html=1;fillColor=#dae8fc;strokeColor=#6c8ebf;" vertex="1" parent="1">
          <mxGeometry x="-100" y="295" width="100" height="60" as="geometry" />
        </mxCell>
        <mxCell id="r_4EzZ_7RXdE05h-1gBr-11" value="" style="rounded=0;whiteSpace=wrap;html=1;fillColor=#f5f5f5;fontColor=#333333;strokeColor=#666666;" vertex="1" parent="1">
          <mxGeometry x="300" y="450" width="500" height="80" as="geometry" />
        </mxCell>
        <mxCell id="r_4EzZ_7RXdE05h-1gBr-13" value="" style="rounded=0;whiteSpace=wrap;html=1;fillColor=#f5f5f5;fontColor=#333333;strokeColor=#666666;" vertex="1" parent="1">
          <mxGeometry x="-300" y="450" width="500" height="80" as="geometry" />
        </mxCell>
        <mxCell id="r_4EzZ_7RXdE05h-1gBr-14" value="CRC" style="rounded=0;whiteSpace=wrap;html=1;fillColor=#dae8fc;strokeColor=#6c8ebf;" vertex="1" parent="1">
          <mxGeometry x="60" y="295" width="100" height="60" as="geometry" />
        </mxCell>
        <mxCell id="r_4EzZ_7RXdE05h-1gBr-15" value="Header" style="rounded=0;whiteSpace=wrap;html=1;fillColor=#dae8fc;strokeColor=#6c8ebf;" vertex="1" parent="1">
          <mxGeometry x="-260" y="295" width="100" height="60" as="geometry" />
        </mxCell>
        <mxCell id="r_4EzZ_7RXdE05h-1gBr-16" value="数据" style="rounded=0;whiteSpace=wrap;html=1;fillColor=#dae8fc;strokeColor=#6c8ebf;" vertex="1" parent="1">
          <mxGeometry x="-100" y="460" width="100" height="60" as="geometry" />
        </mxCell>
        <mxCell id="r_4EzZ_7RXdE05h-1gBr-17" value="CRC" style="rounded=0;whiteSpace=wrap;html=1;fillColor=#dae8fc;strokeColor=#6c8ebf;" vertex="1" parent="1">
          <mxGeometry x="60" y="460" width="100" height="60" as="geometry" />
        </mxCell>
        <mxCell id="r_4EzZ_7RXdE05h-1gBr-18" value="Header" style="rounded=0;whiteSpace=wrap;html=1;fillColor=#dae8fc;strokeColor=#6c8ebf;" vertex="1" parent="1">
          <mxGeometry x="-260" y="460" width="100" height="60" as="geometry" />
        </mxCell>
        <mxCell id="r_4EzZ_7RXdE05h-1gBr-20" value="数据" style="rounded=0;whiteSpace=wrap;html=1;fillColor=#dae8fc;strokeColor=#6c8ebf;" vertex="1" parent="1">
          <mxGeometry x="500" y="460" width="100" height="60" as="geometry" />
        </mxCell>
        <mxCell id="r_4EzZ_7RXdE05h-1gBr-21" value="CRC" style="rounded=0;whiteSpace=wrap;html=1;fillColor=#dae8fc;strokeColor=#6c8ebf;" vertex="1" parent="1">
          <mxGeometry x="660" y="460" width="100" height="60" as="geometry" />
        </mxCell>
        <mxCell id="r_4EzZ_7RXdE05h-1gBr-22" value="Header" style="rounded=0;whiteSpace=wrap;html=1;fillColor=#dae8fc;strokeColor=#6c8ebf;" vertex="1" parent="1">
          <mxGeometry x="340" y="460" width="100" height="60" as="geometry" />
        </mxCell>
        <mxCell id="r_4EzZ_7RXdE05h-1gBr-23" value="数据" style="rounded=0;whiteSpace=wrap;html=1;fillColor=#dae8fc;strokeColor=#6c8ebf;" vertex="1" parent="1">
          <mxGeometry x="500" y="145" width="100" height="60" as="geometry" />
        </mxCell>
        <mxCell id="r_4EzZ_7RXdE05h-1gBr-27" value="" style="endArrow=classic;html=1;rounded=0;fillColor=#e1d5e7;strokeColor=#9673a6;fontStyle=1;shape=flexArrow;" edge="1" parent="1">
          <mxGeometry width="50" height="50" relative="1" as="geometry">
            <mxPoint x="-50.5" y="205" as="sourcePoint" />
            <mxPoint x="-50.5" y="295" as="targetPoint" />
          </mxGeometry>
        </mxCell>
        <mxCell id="r_4EzZ_7RXdE05h-1gBr-32" value="数据" style="rounded=0;whiteSpace=wrap;html=1;fillColor=#dae8fc;strokeColor=#6c8ebf;" vertex="1" parent="1">
          <mxGeometry x="500" y="295" width="100" height="60" as="geometry" />
        </mxCell>
        <mxCell id="r_4EzZ_7RXdE05h-1gBr-33" value="CRC" style="rounded=0;whiteSpace=wrap;html=1;fillColor=#dae8fc;strokeColor=#6c8ebf;" vertex="1" parent="1">
          <mxGeometry x="660" y="295" width="100" height="60" as="geometry" />
        </mxCell>
        <mxCell id="r_4EzZ_7RXdE05h-1gBr-34" value="Header" style="rounded=0;whiteSpace=wrap;html=1;fillColor=#dae8fc;strokeColor=#6c8ebf;" vertex="1" parent="1">
          <mxGeometry x="340" y="295" width="100" height="60" as="geometry" />
        </mxCell>
        <mxCell id="r_4EzZ_7RXdE05h-1gBr-35" value="" style="endArrow=classic;html=1;rounded=0;fillColor=#e1d5e7;strokeColor=#9673a6;fontStyle=1;shape=flexArrow;" edge="1" parent="1">
          <mxGeometry width="50" height="50" relative="1" as="geometry">
            <mxPoint x="-50.5" y="355" as="sourcePoint" />
            <mxPoint x="-50.5" y="460" as="targetPoint" />
          </mxGeometry>
        </mxCell>
        <mxCell id="r_4EzZ_7RXdE05h-1gBr-36" value="" style="endArrow=classic;html=1;rounded=0;fillColor=#e1d5e7;strokeColor=#9673a6;shape=flexArrow;" edge="1" parent="1">
          <mxGeometry width="50" height="50" relative="1" as="geometry">
            <mxPoint x="549.5" y="295" as="sourcePoint" />
            <mxPoint x="549.5" y="205" as="targetPoint" />
          </mxGeometry>
        </mxCell>
        <mxCell id="r_4EzZ_7RXdE05h-1gBr-37" value="" style="endArrow=classic;html=1;rounded=0;fillColor=#e1d5e7;strokeColor=#9673a6;shape=flexArrow;" edge="1" parent="1">
          <mxGeometry width="50" height="50" relative="1" as="geometry">
            <mxPoint x="549.5" y="460" as="sourcePoint" />
            <mxPoint x="549.5" y="355" as="targetPoint" />
          </mxGeometry>
        </mxCell>
        <mxCell id="r_4EzZ_7RXdE05h-1gBr-45" value="CPU拷贝" style="text;html=1;strokeColor=none;fillColor=none;align=center;verticalAlign=middle;whiteSpace=wrap;rounded=0;" vertex="1" parent="1">
          <mxGeometry x="-50" y="220" width="60" height="30" as="geometry" />
        </mxCell>
        <mxCell id="r_4EzZ_7RXdE05h-1gBr-46" value="DMA" style="text;html=1;strokeColor=none;fillColor=none;align=center;verticalAlign=middle;whiteSpace=wrap;rounded=0;" vertex="1" parent="1">
          <mxGeometry x="-60" y="400" width="60" height="30" as="geometry" />
        </mxCell>
        <mxCell id="r_4EzZ_7RXdE05h-1gBr-47" value="CPU拷贝" style="text;html=1;strokeColor=none;fillColor=none;align=center;verticalAlign=middle;whiteSpace=wrap;rounded=0;" vertex="1" parent="1">
          <mxGeometry x="550" y="250" width="60" height="30" as="geometry" />
        </mxCell>
        <mxCell id="r_4EzZ_7RXdE05h-1gBr-48" value="DMA" style="text;html=1;strokeColor=none;fillColor=none;align=center;verticalAlign=middle;whiteSpace=wrap;rounded=0;" vertex="1" parent="1">
          <mxGeometry x="540" y="400" width="60" height="30" as="geometry" />
        </mxCell>
        <mxCell id="r_4EzZ_7RXdE05h-1gBr-49" value="" style="endArrow=classic;html=1;rounded=0;fillColor=#e1d5e7;strokeColor=#9673a6;fontStyle=1;shape=flexArrow;" edge="1" parent="1">
          <mxGeometry width="50" height="50" relative="1" as="geometry">
            <mxPoint x="200" y="489.5" as="sourcePoint" />
            <mxPoint x="300" y="489.5" as="targetPoint" />
          </mxGeometry>
        </mxCell>
        <mxCell id="r_4EzZ_7RXdE05h-1gBr-50" value="内存" style="text;html=1;strokeColor=none;fillColor=none;align=center;verticalAlign=middle;whiteSpace=wrap;rounded=0;fontSize=24;" vertex="1" parent="1">
          <mxGeometry x="-413" y="230" width="80" height="40" as="geometry" />
        </mxCell>
        <mxCell id="r_4EzZ_7RXdE05h-1gBr-52" value="用户态" style="text;html=1;strokeColor=none;fillColor=none;align=center;verticalAlign=middle;whiteSpace=wrap;rounded=0;fontSize=24;" vertex="1" parent="1">
          <mxGeometry x="300" y="100" width="80" height="40" as="geometry" />
        </mxCell>
        <mxCell id="r_4EzZ_7RXdE05h-1gBr-53" value="内核态" style="text;html=1;strokeColor=none;fillColor=none;align=center;verticalAlign=middle;whiteSpace=wrap;rounded=0;fontSize=24;" vertex="1" parent="1">
          <mxGeometry x="-300" y="250" width="80" height="40" as="geometry" />
        </mxCell>
        <mxCell id="r_4EzZ_7RXdE05h-1gBr-54" value="内核态" style="text;html=1;strokeColor=none;fillColor=none;align=center;verticalAlign=middle;whiteSpace=wrap;rounded=0;fontSize=24;" vertex="1" parent="1">
          <mxGeometry x="300" y="250" width="80" height="40" as="geometry" />
        </mxCell>
        <mxCell id="r_4EzZ_7RXdE05h-1gBr-55" value="网卡" style="text;html=1;strokeColor=none;fillColor=none;align=center;verticalAlign=middle;whiteSpace=wrap;rounded=0;fontSize=24;" vertex="1" parent="1">
          <mxGeometry x="-413" y="470" width="80" height="40" as="geometry" />
        </mxCell>
      </root>
    </mxGraphModel>
  </diagram>
</mxfile>
